# xmcd
#
# Track frame offsets:
#	150
#	20221
#	38292
#	56562
#	76057
#	93480
#	111250
#	128381
#	143482
#	160836
#	184220
#	202037
#	220194
#	238448
#	257771
#
# Disc length: 3655 seconds
#
# Revision: 0
# Processed by: cddbd v1.5.1PL0 Copyright (c) Steve Scherf et al.
# Submitted via: EasyCDDAExtractor 8.2.1.1
#
DISCID=cb0e450f
DTITLE=леяйоуяг еиягмг - пакияяоиа
DYEAR=1900
DGENRE=
TTITLE0=поу ма жамтасты
TTITLE1=ека
TTITLE2=йяата ле нама
TTITLE3=пакияяоиа
TTITLE4=сгйы вояеье
TTITLE5=еяытас пийяос
TTITLE6=йоййимо жеццаяи
TTITLE7=йаме ле еутувислемг
TTITLE8=адиенодо
TTITLE9=дыс лоу жытиа
TTITLE10=тяито лпоуйаки
TTITLE11=акгтг лоу
TTITLE12=евеис оса фгты
TTITLE13=йяуымы
TTITLE14=ста латиа тыяа йоита ле
EXTD=
EXTT0=
EXTT1=
EXTT2=
EXTT3=
EXTT4=
EXTT5=
EXTT6=
EXTT7=
EXTT8=
EXTT9=
EXTT10=
EXTT11=
EXTT12=
EXTT13=
EXTT14=
PLAYORDER=
